<svg width="33" height="22" viewBox="0 0 33 22" fill="none" xmlns="http://www.w3.org/2000/svg">
<path d="M21.107 0.917668C21.6585 0.360777 22.5554 0.360777 23.107 0.917668L32.0863 9.99734C32.6379 10.5542 32.6379 11.4458 32.0863 12.0027L23.107 21.0823C22.5554 21.6392 21.6585 21.6392 21.107 21.0823C20.5554 20.5254 20.5554 19.62 21.107 19.0631L27.6863 12.4204H9.9069C9.12684 12.4204 8.5 11.7876 8.5 11C8.5 10.2124 9.12684 9.57956 9.9069 9.57956H27.6863L21.107 2.93692C20.5554 2.38003 20.5554 1.47456 21.107 0.917668Z" fill="black" stroke="white"/>
<path d="M13.107 0.917668C13.6585 0.360777 14.5554 0.360777 15.107 0.917668L24.0863 9.99734C24.6379 10.5542 24.6379 11.4458 24.0863 12.0027L15.107 21.0823C14.5554 21.6392 13.6585 21.6392 13.107 21.0823C12.5554 20.5254 12.5554 19.62 13.107 19.0631L19.6863 12.4204H1.9069C1.12684 12.4204 0.5 11.7876 0.5 11C0.5 10.2124 1.12684 9.57956 1.9069 9.57956H19.6863L13.107 2.93692C12.5554 2.38003 12.5554 1.47456 13.107 0.917668Z" fill="black" stroke="white"/>
</svg>
